<?xml version="1.0" standalone="no"?>
<!DOCTYPE svg PUBLIC "-//W3C//DTD SVG 20010904//EN"
 "http://www.w3.org/TR/2001/REC-SVG-20010904/DTD/svg10.dtd">
<svg version="1.0" xmlns="http://www.w3.org/2000/svg"
 width="180.000000pt" height="120.000000pt" viewBox="0 0 180.000000 120.000000"
 preserveAspectRatio="xMidYMid meet">

<g transform="translate(0.000000,120.000000) scale(0.100000,-0.100000)"
fill="#000000" stroke="none">
<path d="M105 1185 c-49 -17 -81 -53 -95 -105 -7 -27 -10 -196 -8 -502 3 -444
4 -464 23 -498 12 -21 39 -44 65 -58 l44 -22 766 0 766 0 44 22 c26 14 53 37
65 58 19 34 20 51 20 520 0 470 -1 486 -20 520 -12 19 -36 43 -55 55 -34 20
-51 20 -805 22 -646 2 -776 0 -810 -12z m1036 -412 c13 -13 -6 -78 -22 -75
-50 13 -76 12 -94 -2 -20 -16 -20 -16 5 -36 104 -84 100 -79 100 -123 0 -53
-21 -84 -74 -108 -47 -21 -84 -23 -139 -8 -37 10 -38 11 -31 47 4 20 8 38 9
40 1 1 23 -3 48 -10 35 -9 52 -9 71 0 39 17 32 39 -24 73 -57 35 -70 54 -70
101 0 71 76 123 164 114 27 -3 53 -9 57 -13z m-602 -15 c5 -13 17 -68 26 -123
l18 -100 41 123 40 122 49 0 c43 0 48 -2 43 -17 -4 -10 -35 -91 -69 -181 l-62
-162 -50 2 -50 3 -36 153 c-20 84 -38 155 -41 157 -2 2 -24 13 -48 24 l-45 20
88 0 c82 1 88 0 96 -21z m320 -150 c-16 -95 -28 -176 -29 -180 0 -5 -21 -8
-46 -8 l-46 0 5 33 c4 17 16 98 28 180 l23 147 46 0 46 0 -27 -172z m516 150
c3 -13 17 -84 31 -158 14 -74 28 -145 31 -157 5 -21 2 -23 -41 -23 -42 0 -46
2 -46 25 0 24 -3 25 -59 25 -54 0 -59 -2 -65 -25 -6 -22 -12 -25 -51 -25 -25
0 -45 3 -45 7 0 10 110 292 127 326 12 24 19 27 63 27 43 0 50 -3 55 -22z"/>
<path d="M1284 610 l-21 -60 34 0 c34 0 34 0 27 38 -16 85 -18 86 -40 22z"/>
</g>
</svg>
